<?xml version="1.0" encoding="utf-8"?>
<svg version="1.1" xmlns:xlink="http://www.w3.org/1999/xlink" width="28px" height="23px" xmlns="http://www.w3.org/2000/svg">
  <g transform="matrix(1 0 0 1 -855 -314 )">
    <path d="M 15.847438752784 19.3302283653846  C 15.9461766889384 19.2426883012821  15.9955456570156 19.1344150641026  15.9955456570156 19.0054086538462  L 15.9955456570156 16.3792067307692  C 15.9955456570156 16.2502003205128  15.9461766889384 16.1419270833333  15.847438752784 16.0543870192308  C 15.7487008166295 15.9668469551282  15.6317743132888 15.9230769230769  15.4966592427617 15.9230769230769  L 12.5033407572383 15.9230769230769  C 12.3682256867112 15.9230769230769  12.2512991833705 15.9668469551282  12.152561247216 16.0543870192308  C 12.0538233110616 16.1419270833333  12.0044543429844 16.2502003205128  12.0044543429844 16.3792067307692  L 12.0044543429844 19.0054086538462  C 12.0044543429844 19.1344150641026  12.0538233110616 19.2426883012821  12.152561247216 19.3302283653846  C 12.2512991833705 19.4177684294872  12.3682256867112 19.4615384615385  12.5033407572383 19.4615384615385  L 15.4966592427617 19.4615384615385  C 15.6317743132888 19.4615384615385  15.7487008166295 19.4177684294872  15.847438752784 19.3302283653846  Z M 15.8006681514477 14.0640024038462  C 15.8994060876021 14.0041065705128  15.9539717891611 13.9280849358974  15.9643652561247 13.8359375  L 16.2449888641425 7.49158653846154  C 16.2449888641425 7.38100961538462  16.1930215293244 7.29346955128205  16.0890868596882 7.22896634615384  C 15.9539717891611 7.12760416666667  15.8292501855976 7.07692307692308  15.7149220489978 7.07692307692308  L 12.2850779510022 7.07692307692308  C 12.1707498144024 7.07692307692308  12.0460282108389 7.12760416666667  11.9109131403118 7.22896634615384  C 11.8069784706756 7.29346955128205  11.7550111358575 7.39022435897436  11.7550111358575 7.51923076923077  L 12.0200445434298 13.8359375  C 12.0200445434298 13.9280849358974  12.072011878248 14.0041065705128  12.1759465478842 14.0640024038462  C 12.2798812175204 14.1238982371795  12.4046028210839 14.1538461538462  12.5501113585746 14.1538461538462  L 15.43429844098 14.1538461538462  C 15.5798069784707 14.1538461538462  15.7019302152932 14.1238982371795  15.8006681514477 14.0640024038462  Z M 15.0133630289532 0.248798076923077  C 15.3251670378619 0.414663461538461  15.5694135115071 0.640424679487178  15.7461024498886 0.926081730769232  L 27.7193763919822 20.3876201923077  C 28.083147735709 20.9681490384615  28.0727542687454 21.5486778846154  27.6881959910913 22.1292067307692  C 27.5115070527097 22.3964342948718  27.2698589458055 22.6083733974359  26.9632516703786 22.7650240384615  C 26.6566443949517 22.9216746794872  26.3266518188567 23  25.9732739420935 23  L 2.02672605790646 23  C 1.67334818114328 23  1.34335560504826 22.9216746794872  1.03674832962138 22.7650240384615  C 0.730141054194506 22.6083733974359  0.488492947290275 22.3964342948718  0.311804008908686 22.1292067307692  C -0.0727542687453601 21.5486778846154  -0.0831477357089829 20.9681490384615  0.280623608017817 20.3876201923077  L 12.2538975501114 0.926081730769232  C 12.4305864884929 0.640424679487178  12.6748329621381 0.414663461538461  12.9866369710468 0.248798076923077  C 13.2984409799555 0.0829326923076933  13.6362286562732 0  14 0  C 14.3637713437268 0  14.7015590200445 0.0829326923076933  15.0133630289532 0.248798076923077  Z " fill-rule="nonzero" fill="#d9001b" stroke="none" transform="matrix(1 0 0 1 855 314 )" />
  </g>
</svg>