<?xml version="1.0" encoding="utf-8"?>
<svg version="1.1" xmlns:xlink="http://www.w3.org/1999/xlink" width="130px" height="99px" xmlns="http://www.w3.org/2000/svg">
  <g transform="matrix(1 0 0 1 -759 -330 )">
    <path d="M 127.651612903226 13.6666666666667  C 129.217204301075 15.2222222222222  130 17.1111111111111  130 19.3333333333333  C 130 21.5555555555555  129.217204301075 23.4444444444444  127.651612903226 25  L 66.9290322580645 85.3333333333333  L 55.5225806451613 96.6666666666667  C 53.9569892473118 98.2222222222222  52.0559139784946 99  49.8193548387097 99  C 47.5827956989247 99  45.6817204301075 98.2222222222222  44.1161290322581 96.6666666666667  L 32.7096774193548 85.3333333333333  L 2.34838709677419 55.1666666666667  C 0.782795698924732 53.6111111111111  0 51.7222222222222  0 49.5  C 0 47.2777777777778  0.782795698924732 45.3888888888889  2.34838709677419 43.8333333333333  L 13.7548387096774 32.5  C 15.3204301075269 30.9444444444444  17.2215053763441 30.1666666666667  19.458064516129 30.1666666666667  C 21.694623655914 30.1666666666667  23.5956989247312 30.9444444444444  25.1612903225806 32.5  L 49.8193548387097 57.0833333333333  L 104.838709677419 2.33333333333333  C 106.404301075269 0.777777777777774  108.305376344086 0  110.541935483871 0  C 112.778494623656 0  114.679569892473 0.777777777777774  116.245161290323 2.33333333333333  L 127.651612903226 13.6666666666667  Z " fill-rule="nonzero" fill="#169bd5" stroke="none" transform="matrix(1 0 0 1 759 330 )" />
  </g>
</svg>