<?xml version="1.0" encoding="utf-8"?>
<svg version="1.1" xmlns:xlink="http://www.w3.org/1999/xlink" width="40px" height="33px" xmlns="http://www.w3.org/2000/svg">
  <g transform="matrix(1 0 0 1 -1013 -603 )">
    <path d="M 22.6391982182628 27.7346754807692  C 22.7802524127691 27.6090745192308  22.8507795100223 27.4537259615385  22.8507795100223 27.2686298076923  L 22.8507795100223 23.5006009615385  C 22.8507795100223 23.3155048076923  22.7802524127691 23.16015625  22.6391982182628 23.0345552884615  C 22.4981440237565 22.9089543269231  22.3311061618411 22.8461538461538  22.1380846325167 22.8461538461538  L 17.8619153674833 22.8461538461538  C 17.6688938381589 22.8461538461538  17.5018559762435 22.9089543269231  17.3608017817372 23.0345552884615  C 17.2197475872309 23.16015625  17.1492204899777 23.3155048076923  17.1492204899777 23.5006009615385  L 17.1492204899777 27.2686298076923  C 17.1492204899777 27.4537259615385  17.2197475872309 27.6090745192308  17.3608017817372 27.7346754807692  C 17.5018559762435 27.8602764423077  17.6688938381589 27.9230769230769  17.8619153674833 27.9230769230769  L 22.1380846325167 27.9230769230769  C 22.3311061618411 27.9230769230769  22.4981440237565 27.8602764423077  22.6391982182628 27.7346754807692  Z M 22.5723830734967 20.1787860576923  C 22.713437268003 20.0928485576923  22.7913882702301 19.9837740384615  22.8062360801782 19.8515625  L 23.2071269487751 10.7487980769231  C 23.2071269487751 10.5901442307692  23.1328878990349 10.4645432692308  22.9844097995546 10.3719951923077  C 22.7913882702301 10.2265625  22.6132145508538 10.1538461538462  22.4498886414254 10.1538461538462  L 17.5501113585746 10.1538461538462  C 17.3867854491463 10.1538461538462  17.2086117297699 10.2265625  17.0155902004454 10.3719951923077  C 16.8671121009651 10.4645432692308  16.7928730512249 10.6033653846154  16.7928730512249 10.7884615384615  L 17.1714922048998 19.8515625  C 17.1714922048998 19.9837740384615  17.2457312546399 20.0928485576923  17.3942093541203 20.1787860576923  C 17.5426874536006 20.2647235576923  17.720861172977 20.3076923076923  17.9287305122494 20.3076923076923  L 22.0489977728285 20.3076923076923  C 22.256867112101 20.3076923076923  22.4313288789904 20.2647235576923  22.5723830734967 20.1787860576923  Z M 21.4476614699332 0.356971153846154  C 21.8930957683742 0.594951923076923  22.2420193021529 0.91887019230769  22.4944320712695 1.32872596153846  L 39.5991091314031 29.2518028846154  C 40.1187824795843 30.0847355769231  40.1039346696362 30.9176682692308  39.554565701559 31.7506009615385  C 39.3021529324425 32.1340144230769  38.9569413511507 32.4381009615385  38.5189309576837 32.6628605769231  C 38.0809205642168 32.8876201923077  37.6095025983667 33  37.1046770601336 33  L 2.89532293986637 33  C 2.39049740163326 33  1.91907943578322 32.8876201923077  1.48106904231626 32.6628605769231  C 1.04305864884929 32.4381009615385  0.697847067557535 32.1340144230769  0.44543429844098 31.7506009615385  C -0.103934669636229 30.9176682692308  -0.118782479584261 30.0847355769231  0.400890868596882 29.2518028846154  L 17.5055679287305 1.32872596153846  C 17.7579806978471 0.91887019230769  18.1069042316258 0.594951923076923  18.5523385300668 0.356971153846154  C 18.9977728285078 0.118990384615386  19.4803266518189 0  20 0  C 20.5196733481811 0  21.0022271714922 0.118990384615386  21.4476614699332 0.356971153846154  Z " fill-rule="nonzero" fill="#d9001b" stroke="none" transform="matrix(1 0 0 1 1013 603 )" />
  </g>
</svg>