<?xml version="1.0" encoding="utf-8"?>
<svg version="1.1" xmlns:xlink="http://www.w3.org/1999/xlink" width="50px" height="50px" xmlns="http://www.w3.org/2000/svg">
  <g transform="matrix(1 0 0 1 -1208 -1639 )">
    <path d="M 30.5330634278003 32.8404017857143  C 31.4102564102564 32.8404017857143  31.8488529014845 33.4635416666667  31.8488529014845 34.7098214285714  L 31.8488529014845 40.5970982142857  C 31.8488529014845 41.8433779761905  31.4102564102564 42.4665178571429  30.5330634278003 42.4665178571429  C 30.0157444894287 42.4665178571429  29.5096716149348 42.2619047619048  29.0148448043185 41.8526785714286  L 29.0148448043185 33.4542410714286  C 29.5096716149348 33.0450148809524  30.0157444894287 32.8404017857143  30.5330634278003 32.8404017857143  Z M 41.7341430499325 32.8404017857143  C 42.7462887989204 32.8404017857143  43.2523616734143 33.4728422619048  43.2523616734143 34.7377232142857  L 43.2523616734143 36.0212053571429  L 40.2159244264507 36.0212053571429  L 40.2159244264507 34.7377232142857  C 40.2159244264507 33.4728422619048  40.7219973009447 32.8404017857143  41.7341430499325 32.8404017857143  Z M 11 44.53125  L 11 28.6551339285714  L 14.2712550607287 28.6551339285714  L 14.2712550607287 26  L 3.74493927125506 26  L 3.74493927125506 28.6551339285714  L 8 28.6551339285714  L 8 44.53125  L 11 44.53125  Z M 20.3778677462888 43.0245535714286  L 20.3778677462888 44.53125  L 24 44.53125  L 24 30.7477678571429  L 21 30.7477678571429  L 21 41.2946428571429  C 19.7031039136302 42.0758928571429  19.0620782726046 42.4665178571429  18.4547908232119 42.4665178571429  C 18.0499325236167 42.4665178571429  17.8137651821862 42.2712053571429  17.7462887989204 41.8805803571429  C 17.7237966711651 41.8247767857143  17.7125506072875 41.499255952381  18 40.9040178571429  L 18 30.7477678571429  L 15 30.7477678571429  L 15 41.6573660714286  C 14.7098515519568 42.5688244047619  14.799820062978 43.2477678571429  14.9797570850202 43.6941964285714  C 15.2496626180837 44.3824404761905  15.901934322987 44.7265625  16.9365721997301 44.7265625  C 18.0161943319838 44.7265625  19.1632928475034 44.1592261904762  20.3778677462888 43.0245535714286  Z M 34.5479082321188 43.1919642857143  C 34.7503373819163 42.6897321428571  34.8515519568151 41.7596726190476  34.8515519568151 40.4017857142857  L 34.8515519568151 34.9051339285714  C 34.8515519568151 33.5472470238095  34.7503373819163 32.6264880952381  34.5479082321188 32.1428571428571  C 34.1655420602789 31.1011904761905  33.3670715249663 30.5803571428571  32.1524966261808 30.5803571428571  C 31.0278902384166 30.5803571428571  29.9820062977958 31.0825892857143  29.0148448043185 32.0870535714286  L 29.0148448043185 26.0323660714286  L 26 26.0323660714286  L 26 44.53125  L 29.0148448043185 44.53125  L 29.0148448043185 43.1919642857143  C 30.0269905533063 44.2150297619048  31.0728744939271 44.7265625  32.1524966261808 44.7265625  C 33.3670715249663 44.7265625  34.1655420602789 44.2150297619048  34.5479082321188 43.1919642857143  Z M 46.1875843454791 41.7410714285714  C 46.2325686009897 41.5736607142857  46.2550607287449 41.0342261904762  46.2550607287449 40.1227678571429  L 46.2550607287449 39.7600446428571  L 43.1848852901485 39.7600446428571  C 43.1848852901485 40.7087053571429  43.1623931623932 41.2760416666667  43.1174089068826 41.4620535714286  C 42.9599640125956 42.1316964285714  42.5101214574899 42.4665178571429  41.7678812415655 42.4665178571429  C 40.7332433648223 42.4665178571429  40.2159244264507 41.8247767857143  40.2159244264507 40.5412946428571  L 40.2159244264507 38.1138392857143  L 46.2550607287449 38.1138392857143  L 46.2550607287449 35.2399553571429  C 46.2550607287449 33.7704613095238  45.9514170040486 32.6915922619048  45.3441295546559 32.0033482142857  C 44.4669365721997 31.0546875  43.2748538011696 30.5803571428571  41.7678812415655 30.5803571428571  C 40.238416554206 30.5803571428571  39.0350877192982 31.0546875  38.1578947368421 32.0033482142857  C 37.5281151596941 32.6915922619048  37.2132253711201 33.7704613095238  37.2132253711201 35.2399553571429  L 37.2132253711201 40.0669642857143  C 37.2132253711201 41.5364583333333  37.5393612235718 42.6153273809524  38.191632928475 43.3035714285714  C 39.0688259109312 44.2522321428571  40.2834008097166 44.7265625  41.8353576248313 44.7265625  C 43.4547908232119 44.7265625  44.6693657219973 44.2336309523809  45.4790823211876 43.2477678571429  C 45.8839406207827 42.7455357142857  46.1201079622132 42.2433035714286  46.1875843454791 41.7410714285714  Z M 24.2914979757085 16.6015625  C 25.2586594691858 16.6015625  25.7422402159244 15.9505208333333  25.7422402159244 14.6484375  L 25.7422402159244 8.7890625  C 25.7422402159244 7.50558035714286  25.2586594691858 6.86383928571428  24.2914979757085 6.86383928571428  C 23.3243364822312 6.86383928571428  22.8407557354926 7.50558035714286  22.8407557354926 8.7890625  L 22.8407557354926 14.6484375  C 22.8407557354926 15.9505208333333  23.3243364822312 16.6015625  24.2914979757085 16.6015625  Z M 49.1228070175439 25.8370535714286  C 49.7076023391813 27.9203869047619  50 31.1755952380952  50 35.6026785714286  C 50 39.9553571428571  49.7076023391813 43.2105654761905  49.1228070175439 45.3683035714286  C 48.8079172289699 46.4657738095238  48.1556455240666 47.3865327380952  47.165991902834 48.1305803571429  C 46.1763382816014 48.8746279761905  45.0292397660819 49.3024553571429  43.7246963562753 49.4140625  C 39.5861448493027 49.8046875  33.344579397211 50  25 50  C 16.655420602789 50  10.4138551506973 49.8046875  6.2753036437247 49.4140625  C 4.97076023391813 49.3024553571429  3.81803868645974 48.8746279761905  2.81713900134953 48.1305803571429  C 1.81623931623932 47.3865327380952  1.16959064327485 46.4657738095238  0.87719298245614 45.3683035714286  C 0.292397660818714 43.2849702380952  0 40.0297619047619  0 35.6026785714286  C 0 31.25  0.292397660818714 27.9947916666667  0.87719298245614 25.8370535714286  C 1.19208277103014 24.7395833333333  1.84435447593342 23.8188244047619  2.83400809716599 23.0747767857143  C 3.82366171839856 22.3307291666667  4.98200629779577 21.8936011904762  6.30904183535762 21.7633928571429  C 10.4251012145749 21.391369047619  16.655420602789 21.2053571428571  25 21.2053571428571  C 33.344579397211 21.2053571428571  39.5861448493027 21.391369047619  43.7246963562753 21.7633928571429  C 45.0292397660819 21.8936011904762  46.1819613135403 22.3307291666667  47.1828609986505 23.0747767857143  C 48.1837606837607 23.8188244047619  48.8304093567251 24.7395833333333  49.1228070175439 25.8370535714286  Z M 14.0350877192982 7.33816964285715  L 16.3292847503374 0  L 19.7705802968961 0  L 15.6882591093117 11.1328125  L 15.6882591093117 18.6941964285714  L 12.3144399460189 18.6941964285714  L 12.3144399460189 11.1328125  C 11.9995501574449 9.7563244047619  11.3135402609087 7.78459821428572  10.2564102564103 5.21763392857143  C 9.42420152946469 3.30171130952381  8.6932073774179 1.5625  8.0634278002699 0  L 11.6396761133603 0  L 14.0350877192982 7.33816964285715  Z M 27.8677462887989 6.02678571428572  C 28.4975258659469 6.71502976190476  28.8124156545209 7.8031994047619  28.8124156545209 9.29129464285715  L 28.8124156545209 14.1741071428571  C 28.8124156545209 15.6808035714286  28.4975258659469 16.7782738095238  27.8677462887989 17.4665178571429  C 27.0130454340981 18.4151785714286  25.8209626630679 18.8895089285714  24.2914979757085 18.8895089285714  C 22.7845254161044 18.8895089285714  21.6036887089519 18.4151785714286  20.748987854251 17.4665178571429  C 20.119208277103 16.7596726190476  19.804318488529 15.6622023809524  19.804318488529 14.1741071428571  L 19.804318488529 9.29129464285715  C 19.804318488529 7.8031994047619  20.119208277103 6.71502976190476  20.748987854251 6.02678571428572  C 21.6036887089519 5.078125  22.7845254161044 4.60379464285715  24.2914979757085 4.60379464285715  C 25.8209626630679 4.60379464285715  27.0130454340981 5.078125  27.8677462887989 6.02678571428572  Z M 37 4.77120535714286  L 40 4.77120535714286  L 40 18.6941964285714  L 37.0445344129555 18.6941964285714  L 37.0445344129555 17.1595982142857  C 35.8524516419253 18.3128720238095  34.6941070625281 18.8895089285714  33.5695006747638 18.8895089285714  C 32.5348627980207 18.8895089285714  31.8713450292398 18.5453869047619  31.5789473684211 17.8571428571429  C 31.3990103463788 17.4107142857143  31.3090418353576 16.7131696428571  31 15.7645089285714  L 31 4.77120535714286  L 34 4.77120535714286  L 34 15.0111607142857  C 34.3792172739541 15.625  34.3904633378318 15.9505208333333  34.412955465587 15.9877232142857  C 34.4804318488529 16.3969494047619  34.7165991902834 16.6015625  35.1214574898785 16.6015625  C 35.7287449392713 16.6015625  36.3697705802969 16.2016369047619  37 15.4017857142857  L 37 4.77120535714286  Z " fill-rule="nonzero" fill="#f70000" stroke="none" transform="matrix(1 0 0 1 1208 1639 )" />
  </g>
</svg>