<?xml version="1.0" encoding="utf-8"?>
<svg version="1.1" xmlns:xlink="http://www.w3.org/1999/xlink" width="25px" height="25px" xmlns="http://www.w3.org/2000/svg">
  <g>
    <path d="M 25 12.5  C 25 5.59475806451613  19.4052419354839 0  12.5 0  C 5.59475806451613 0  0 5.59475806451613  0 12.5  C 0 19.4052419354839  5.59475806451613 25  12.5 25  C 19.4052419354839 25  25 19.4052419354839  25 12.5  Z M 19.1532258064516 14.5161290322581  L 5.84677419354839 14.5161290322581  C 5.51411290322581 14.5161290322581  5.24193548387097 14.2439516129032  5.24193548387097 13.9112903225806  L 5.24193548387097 11.0887096774194  C 5.24193548387097 10.7560483870968  5.51411290322581 10.4838709677419  5.84677419354839 10.4838709677419  L 19.1532258064516 10.4838709677419  C 19.4858870967742 10.4838709677419  19.758064516129 10.7560483870968  19.758064516129 11.0887096774194  L 19.758064516129 13.9112903225806  C 19.758064516129 14.2439516129032  19.4858870967742 14.5161290322581  19.1532258064516 14.5161290322581  Z " fill-rule="nonzero" fill="#169bd5" stroke="none" />
  </g>
</svg>